<?xml version="1.0" encoding="UTF-8" standalone="no"?>
<!DOCTYPE svg PUBLIC "-//W3C//DTD SVG 1.1//EN"
 "http://www.w3.org/Graphics/SVG/1.1/DTD/svg11.dtd">
<!-- Generated by graphviz version 2.28.0 (20111028.1807)
 -->
<!-- Title: g Pages: 1 -->
<svg width="544pt" height="404pt"
 viewBox="0.00 0.00 544.00 404.00" xmlns="http://www.w3.org/2000/svg" xmlns:xlink="http://www.w3.org/1999/xlink">
<g id="graph1" class="graph" transform="scale(1 1) rotate(0) translate(4 400)">
<title>g</title>
<polygon fill="white" stroke="white" points="-4,5 -4,-400 541,-400 541,5 -4,5"/>
<!-- splitAmong -->
<g id="node1" class="node"><title>splitAmong</title>
<ellipse fill="none" stroke="black" cx="71" cy="-378" rx="56.464" ry="18"/>
<text text-anchor="middle" x="71" y="-372.4" font-family="Times,serif" font-size="14.00">splitAmong</text>
</g>
<!-- lazySpread -->
<g id="node3" class="node"><title>lazySpread</title>
<ellipse fill="none" stroke="black" cx="210" cy="-306" rx="53.4052" ry="18"/>
<text text-anchor="middle" x="210" y="-300.4" font-family="Times,serif" font-size="14.00">lazySpread</text>
</g>
<!-- splitAmong&#45;&gt;lazySpread -->
<g id="edge2" class="edge"><title>splitAmong&#45;&gt;lazySpread</title>
<path fill="none" stroke="black" d="M99.8009,-362.496C120.768,-351.937 149.365,-337.535 172.173,-326.049"/>
<polygon fill="black" stroke="black" points="173.879,-329.109 181.236,-321.485 170.73,-322.857 173.879,-329.109"/>
</g>
<!-- among -->
<g id="node5" class="node"><title>among</title>
<ellipse fill="none" stroke="black" cx="71" cy="-306" rx="36.9811" ry="18"/>
<text text-anchor="middle" x="71" y="-300.4" font-family="Times,serif" font-size="14.00">among</text>
</g>
<!-- splitAmong&#45;&gt;among -->
<g id="edge4" class="edge"><title>splitAmong&#45;&gt;among</title>
<path fill="none" stroke="black" d="M71,-359.697C71,-351.983 71,-342.712 71,-334.112"/>
<polygon fill="black" stroke="black" points="74.5001,-334.104 71,-324.104 67.5001,-334.104 74.5001,-334.104"/>
</g>
<!-- ban -->
<g id="node12" class="node"><title>ban</title>
<ellipse fill="none" stroke="black" cx="31" cy="-234" rx="27" ry="18"/>
<text text-anchor="middle" x="31" y="-228.4" font-family="Times,serif" font-size="14.00">ban</text>
</g>
<!-- among&#45;&gt;ban -->
<g id="edge18" class="edge"><title>among&#45;&gt;ban</title>
<path fill="none" stroke="black" d="M61.5206,-288.411C56.669,-279.921 50.6628,-269.41 45.2653,-259.964"/>
<polygon fill="black" stroke="black" points="48.1364,-257.934 40.1361,-250.988 42.0586,-261.407 48.1364,-257.934"/>
</g>
<!-- gather -->
<g id="node20" class="node"><title>gather</title>
<ellipse fill="none" stroke="black" cx="111" cy="-234" rx="35.2475" ry="18"/>
<text text-anchor="middle" x="111" y="-228.4" font-family="Times,serif" font-size="14.00">gather</text>
</g>
<!-- among&#45;&gt;gather -->
<g id="edge20" class="edge"><title>among&#45;&gt;gather</title>
<path fill="none" stroke="black" d="M80.4794,-288.411C85.2617,-280.042 91.1658,-269.71 96.503,-260.37"/>
<polygon fill="black" stroke="black" points="99.666,-261.889 101.589,-251.47 93.5883,-258.416 99.666,-261.889"/>
</g>
<!-- mostlySpread -->
<g id="node6" class="node"><title>mostlySpread</title>
<ellipse fill="none" stroke="black" cx="210" cy="-378" rx="64.2176" ry="18"/>
<text text-anchor="middle" x="210" y="-372.4" font-family="Times,serif" font-size="14.00">mostlySpread</text>
</g>
<!-- mostlySpread&#45;&gt;lazySpread -->
<g id="edge6" class="edge"><title>mostlySpread&#45;&gt;lazySpread</title>
<path fill="none" stroke="black" d="M210,-359.697C210,-351.983 210,-342.712 210,-334.112"/>
<polygon fill="black" stroke="black" points="213.5,-334.104 210,-324.104 206.5,-334.104 213.5,-334.104"/>
</g>
<!-- split -->
<g id="node8" class="node"><title>split</title>
<ellipse fill="none" stroke="black" cx="320" cy="-378" rx="27.5071" ry="18"/>
<text text-anchor="middle" x="320" y="-372.4" font-family="Times,serif" font-size="14.00">split</text>
</g>
<!-- split&#45;&gt;lazySpread -->
<g id="edge10" class="edge"><title>split&#45;&gt;lazySpread</title>
<path fill="none" stroke="black" d="M300.839,-364.807C284.792,-354.595 261.534,-339.794 242.569,-327.726"/>
<polygon fill="black" stroke="black" points="244.243,-324.643 233.928,-322.227 240.485,-330.548 244.243,-324.643"/>
</g>
<!-- lonely -->
<g id="node10" class="node"><title>lonely</title>
<ellipse fill="none" stroke="black" cx="320" cy="-306" rx="35.2617" ry="18"/>
<text text-anchor="middle" x="320" y="-300.4" font-family="Times,serif" font-size="14.00">lonely</text>
</g>
<!-- split&#45;&gt;lonely -->
<g id="edge8" class="edge"><title>split&#45;&gt;lonely</title>
<path fill="none" stroke="black" d="M320,-359.697C320,-351.983 320,-342.712 320,-334.112"/>
<polygon fill="black" stroke="black" points="323.5,-334.104 320,-324.104 316.5,-334.104 323.5,-334.104"/>
</g>
<!-- fence -->
<g id="node14" class="node"><title>fence</title>
<ellipse fill="none" stroke="black" cx="31" cy="-162" rx="31.4102" ry="18"/>
<text text-anchor="middle" x="31" y="-156.4" font-family="Times,serif" font-size="14.00">fence</text>
</g>
<!-- ban&#45;&gt;fence -->
<g id="edge12" class="edge"><title>ban&#45;&gt;fence</title>
<path fill="none" stroke="black" d="M25.1601,-216.411C24.2975,-208.507 24.0481,-198.852 24.4119,-189.935"/>
<polygon fill="black" stroke="black" points="27.9033,-190.179 25.1206,-179.956 20.9209,-189.683 27.9033,-190.179"/>
</g>
<!-- fence&#45;&gt;ban -->
<g id="edge14" class="edge"><title>fence&#45;&gt;ban</title>
<path fill="none" stroke="black" d="M36.8794,-179.956C37.7139,-187.827 37.9485,-197.374 37.5831,-206.187"/>
<polygon fill="black" stroke="black" points="34.0742,-206.184 36.8399,-216.411 41.0558,-206.691 34.0742,-206.184"/>
</g>
<!-- fence_PLUS_root -->
<g id="node16" class="node"><title>fence_PLUS_root</title>
<polygon fill="none" stroke="black" points="69,-108 42,-90 69,-72 96,-90 69,-108"/>
<text text-anchor="middle" x="69" y="-84.4" font-family="Times,serif" font-size="14.00">+</text>
</g>
<!-- fence&#45;&gt;fence_PLUS_root -->
<g id="edge16" class="edge"><title>fence&#45;&gt;fence_PLUS_root</title>
<path fill="none" stroke="black" d="M40.0055,-144.411C45.1282,-134.974 51.6059,-123.042 57.1386,-112.85"/>
<polygon fill="black" stroke="black" points="60.3836,-114.208 62.0785,-103.75 54.2316,-110.869 60.3836,-114.208"/>
</g>
<!-- quarantine -->
<g id="node25" class="node"><title>quarantine</title>
<ellipse fill="none" stroke="black" cx="69" cy="-18" rx="51.1888" ry="18"/>
<text text-anchor="middle" x="69" y="-12.4" font-family="Times,serif" font-size="14.00">quarantine</text>
</g>
<!-- fence_PLUS_root&#45;&gt;quarantine -->
<g id="edge24" class="edge"><title>fence_PLUS_root&#45;&gt;quarantine</title>
<path fill="none" stroke="black" d="M69,-71.6966C69,-63.9827 69,-54.7125 69,-46.1124"/>
<polygon fill="black" stroke="black" points="72.5001,-46.1043 69,-36.1043 65.5001,-46.1044 72.5001,-46.1043"/>
</g>
<!-- cumulatedCapacity -->
<g id="node21" class="node"><title>cumulatedCapacity</title>
<ellipse fill="none" stroke="black" cx="451" cy="-378" rx="85.3709" ry="18"/>
<text text-anchor="middle" x="451" y="-372.4" font-family="Times,serif" font-size="14.00">cumulatedCapacity</text>
</g>
<!-- singleCapacity -->
<g id="node23" class="node"><title>singleCapacity</title>
<ellipse fill="none" stroke="black" cx="451" cy="-306" rx="68.14" ry="18"/>
<text text-anchor="middle" x="451" y="-300.4" font-family="Times,serif" font-size="14.00">singleCapacity</text>
</g>
<!-- cumulatedCapacity&#45;&gt;singleCapacity -->
<g id="edge22" class="edge"><title>cumulatedCapacity&#45;&gt;singleCapacity</title>
<path fill="none" stroke="black" d="M451,-359.697C451,-351.983 451,-342.712 451,-334.112"/>
<polygon fill="black" stroke="black" points="454.5,-334.104 451,-324.104 447.5,-334.104 454.5,-334.104"/>
</g>
<!-- root -->
<g id="node26" class="node"><title>root</title>
<ellipse fill="none" stroke="black" cx="108" cy="-162" rx="27" ry="18"/>
<text text-anchor="middle" x="108" y="-156.4" font-family="Times,serif" font-size="14.00">root</text>
</g>
<!-- root&#45;&gt;fence_PLUS_root -->
<g id="edge26" class="edge"><title>root&#45;&gt;fence_PLUS_root</title>
<path fill="none" stroke="black" d="M98.9546,-144.765C93.5794,-135.117 86.6996,-122.769 80.8891,-112.339"/>
<polygon fill="black" stroke="black" points="83.852,-110.466 75.9275,-103.434 77.7371,-113.873 83.852,-110.466"/>
</g>
</g>
</svg>
