<?xml version="1.0" encoding="UTF-8" standalone="no"?>
<!-- Created with Inkscape (http://www.inkscape.org/) -->

<svg
   xmlns:dc="http://purl.org/dc/elements/1.1/"
   xmlns:cc="http://creativecommons.org/ns#"
   xmlns:rdf="http://www.w3.org/1999/02/22-rdf-syntax-ns#"
   xmlns:svg="http://www.w3.org/2000/svg"
   xmlns="http://www.w3.org/2000/svg"
   xmlns:sodipodi="http://sodipodi.sourceforge.net/DTD/sodipodi-0.dtd"
   xmlns:inkscape="http://www.inkscape.org/namespaces/inkscape"
   width="772"
   height="316.00009"
   id="svg5036"
   version="1.1"
   inkscape:version="0.48.2 r9819"
   sodipodi:docname="restart.svg"
   inkscape:export-filename="/Users/fhermeni/Research/Code/Btrpcc/sandbox/src/main/webapp/img/restart.png"
   inkscape:export-xdpi="15.379743"
   inkscape:export-ydpi="15.379743">
  <defs
     id="defs5038">
    <marker
       inkscape:stockid="TriangleOutS"
       orient="auto"
       refY="0"
       refX="0"
       id="TriangleOutS"
       style="overflow:visible">
      <path
         inkscape:connector-curvature="0"
         id="p1"
         d="m 5.77,0 -8.65,5 0,-10 8.65,5 z"
         style="fill-rule:evenodd;stroke:#000000;stroke-width:1pt;marker-start:none"
         transform="scale(0.2,0.2)" />
    </marker>
  </defs>
  <sodipodi:namedview
     id="base"
     pagecolor="#ffffff"
     bordercolor="#666666"
     borderopacity="1.0"
     inkscape:pageopacity="0.0"
     inkscape:pageshadow="2"
     inkscape:zoom="1.0281515"
     inkscape:cx="343.84719"
     inkscape:cy="92.791722"
     inkscape:document-units="px"
     inkscape:current-layer="layer1"
     showgrid="true"
     inkscape:window-width="1280"
     inkscape:window-height="752"
     inkscape:window-x="0"
     inkscape:window-y="22"
     inkscape:window-maximized="0"
     fit-margin-top="0"
     fit-margin-left="0"
     fit-margin-right="0"
     fit-margin-bottom="0">
    <inkscape:grid
       type="xygrid"
       id="grid5044"
       empspacing="5"
       visible="true"
       enabled="true"
       snapvisiblegridlinesonly="true" />
  </sodipodi:namedview>
  <metadata
     id="metadata5041">
    <rdf:RDF>
      <cc:Work
         rdf:about="">
        <dc:format>image/svg+xml</dc:format>
        <dc:type
           rdf:resource="http://purl.org/dc/dcmitype/StillImage" />
        <dc:title></dc:title>
      </cc:Work>
    </rdf:RDF>
  </metadata>
  <g
     inkscape:label="Calque 1"
     inkscape:groupmode="layer"
     id="layer1"
     transform="translate(-81.00005,-350.90175)">
    <g
       id="g3775"
       transform="translate(5e-5,-5.4732524)">
      <rect
         inkscape:export-ydpi="15.46"
         inkscape:export-xdpi="15.46"
         ry="20"
         rx="20"
         y="358.36209"
         x="83.000099"
         height="155.01289"
         width="768"
         id="rect3557"
         style="fill:#f2f2f2;fill-opacity:1;fill-rule:nonzero;stroke:#000000;stroke-width:4;stroke-miterlimit:4;stroke-opacity:1;stroke-dasharray:none" />
      <text
         sodipodi:linespacing="125%"
         id="text4327"
         y="465.57556"
         x="284.56082"
         style="font-size:80px;font-style:normal;font-variant:normal;font-weight:bold;font-stretch:normal;line-height:125%;letter-spacing:0px;word-spacing:0px;fill:#000000;fill-opacity:1;stroke:none;font-family:Tahoma;-inkscape-font-specification:Tahoma Bold"
         xml:space="preserve"><tspan
           y="465.57556"
           x="284.56082"
           id="tspan4329"
           sodipodi:role="line">New sandbox</tspan></text>
      <path
         id="path5830"
         d="m 149.40488,436.87434 c 0,-20.37012 16.50027,-36.89224 36.84449,-36.89224 8.78903,0 16.81541,3.13894 23.13142,8.29133 l -14.48667,13.80329 45.77959,5.21339 0.36877,-49.1857 -14.09232,13.43318 c -10.7852,-9.72459 -25.02042,-15.66905 -40.67651,-15.66905 -33.65235,0 -60.93096,27.31764 -60.93096,61.00672 0,1.25759 0.11085,-1.03929 0.18964,0.20409 l 24.58802,3.46504 c -0.45851,-2.33356 -0.71547,-1.20806 -0.71547,-3.67005 z m 96.72974,-2.21019 -24.58848,-3.46505 c 0.46584,2.33267 0.71271,1.20027 0.71271,3.66547 0,20.37012 -16.49339,36.88904 -36.84084,36.88904 -8.76383,0 -16.76548,-3.11786 -23.07785,-8.2418 l 14.47204,-13.79503 -45.77276,-5.21293 -0.37194,49.18935 14.10285,-13.44371 c 10.77833,9.69615 24.99569,15.61905 40.62338,15.61905 33.65189,0 60.93096,-27.31442 60.93096,-61.00305 0,-1.25484 -0.11449,1.04158 -0.19007,-0.20134 z"
         inkscape:connector-curvature="0" />
    </g>
    <g
       id="g3769"
       transform="translate(-0.99992711,-12.473168)">
      <rect
         style="fill:#f2f2f2;fill-opacity:1;fill-rule:nonzero;stroke:#000000;stroke-width:2;stroke-miterlimit:4;stroke-opacity:1;stroke-dasharray:none"
         id="rect2993"
         width="768"
         height="155.01289"
         x="83.000076"
         y="523.375"
         rx="20"
         ry="20"
         inkscape:export-xdpi="15.46"
         inkscape:export-ydpi="15.46" />
      <text
         xml:space="preserve"
         style="font-size:80px;font-style:normal;font-variant:normal;font-weight:bold;font-stretch:normal;line-height:125%;letter-spacing:0px;word-spacing:0px;fill:#000000;fill-opacity:1;stroke:none;font-family:Tahoma;-inkscape-font-specification:Tahoma Bold"
         x="284.56082"
         y="630.5885"
         id="text5806"
         sodipodi:linespacing="125%"><tspan
           sodipodi:role="line"
           id="tspan5808"
           x="284.56082"
           y="630.5885">New sandbox</tspan></text>
      <path
         inkscape:connector-curvature="0"
         d="m 184.82789,564.45264 c 20.37012,0 36.89224,16.50027 36.89224,36.84449 0,8.78903 -3.13894,16.81541 -8.29133,23.13142 l -13.80329,-14.48667 -5.21339,45.77959 49.1857,0.36877 -13.43318,-14.09232 c 9.72459,-10.7852 15.66905,-25.02042 15.66905,-40.67651 0,-33.65235 -27.31764,-60.93096 -61.00672,-60.93096 -1.25759,0 1.03929,0.11085 -0.20409,0.18964 l -3.46504,24.58802 c 2.33356,-0.45851 1.20806,-0.71547 3.67005,-0.71547 z m 2.21019,96.72974 3.46505,-24.58848 c -2.33267,0.46584 -1.20027,0.71271 -3.66547,0.71271 -20.37012,0 -36.88904,-16.49339 -36.88904,-36.84084 0,-8.76383 3.11786,-16.76548 8.2418,-23.07785 l 13.79503,14.47204 5.21293,-45.77276 -49.18935,-0.37194 13.44371,14.10285 c -9.69615,10.77833 -15.61905,24.99569 -15.61905,40.62338 0,33.65189 27.31442,60.93096 61.00305,60.93096 1.25484,0 -1.04158,-0.11449 0.20134,-0.19007 z"
         id="path5862" />
    </g>
  </g>
</svg>
